<svg xmlns="http://www.w3.org/2000/svg" width="780" height="320" viewBox="0 0 780 320"><rect width="780" height="320" fill="#f7f7f4"/><text x="390" y="16" text-anchor="middle" font-size="13">DP1 motion — stowed / mid / deployed unlocked / captured</text><text x="8" y="52" font-size="10">stowed</text><rect x="338.91213389121333" y="40" width="383.9330543933054" height="10" fill="none" stroke="#aaa"/><rect x="372.970711297071" y="56" width="315.8158995815899" height="12" fill="#ddd" stroke="#222"/><rect x="387.83263598326346" y="72" width="222.92887029288704" height="10" fill="#26a"/><text x="8" y="120" font-size="10">mid-stroke</text><rect x="338.91213389121333" y="108" width="383.9330543933054" height="10" fill="none" stroke="#aaa"/><rect x="215.06276150627596" y="124" width="315.81589958159" height="12" fill="#ddd" stroke="#222"/><rect x="387.83263598326346" y="140" width="222.92887029288704" height="10" fill="#26a"/><text x="8" y="188" font-size="10">deployed unlocked</text><rect x="338.91213389121333" y="176" width="383.9330543933054" height="10" fill="none" stroke="#aaa"/><rect x="66.62928870292876" y="192" width="315.8158995815901" height="12" fill="#ddd" stroke="#222"/><rect x="387.83263598326346" y="208" width="222.92887029288704" height="10" fill="#26a"/><text x="8" y="256" font-size="10">deployed captured</text><rect x="338.91213389121333" y="244" width="383.9330543933054" height="10" fill="none" stroke="#aaa"/><rect x="57.15481171548115" y="260" width="315.8158995815898" height="12" fill="#ddd" stroke="#222"/><rect x="387.83263598326346" y="276" width="222.92887029288704" height="10" fill="#26a"/><circle cx="372.970711297071" cy="266" r="5" fill="#a80"/></svg>